<svg id="Ebene_1" data-name="Ebene 1" xmlns="http://www.w3.org/2000/svg" viewBox="0 0 208.2 79.36"><defs><clipPath id="clip-path" transform="translate(-.17 -.25)"><path fill="none" d="M.17.25h208.2v79.36H.17z"/></clipPath><style>.cls-2{fill:#06467c}.cls-3{fill:#e50446}.cls-4{fill:#0391a0}.cls-6{fill:#17a9e2}</style></defs><path class="cls-2" d="M132.58 57.23H143a9.61 9.61 0 00.12-1.68 7.66 7.66 0 00-8-8.09c-5.14 0-8.21 3.59-8.21 8.48 0 5.08 3.49 8.51 8.21 8.51a7.53 7.53 0 007.55-5.16H139a4 4 0 01-3.88 2.29c-2.93 0-4.81-2.23-4.81-5.52 0-3.46 1.82-5.73 4.66-5.73 2.59 0 4.56 1.64 4.59 4.15h-7a2.53 2.53 0 000 2.75zm49.34 7.22a8.24 8.24 0 008.54-8.51 8.39 8.39 0 10-16.78 0c0 5.2 3.65 8.51 8.24 8.51zm0-3c-2.74 0-4.77-2-4.77-5.55 0-3.28 1.88-5.52 4.86-5.52 3.2 0 5 2.51 5 5.52 0 3.58-2.42 5.55-5.05 5.55zm-69.4-21.55a3.31 3.31 0 00-3.37 3.43v20.85h3.37V55c0-3 1.61-4.57 4.15-4.57s4.12 1.57 4.12 4.57v9.19h3.37v-9.7c0-4.18-2.42-7-6.54-7a6.46 6.46 0 00-5.1 2.18v-9.7zM146 64.33a3.29 3.29 0 003.37-3.43v-5.38c0-3.34 1.38-4.38 4.06-4.38h.87v-3.68a5.42 5.42 0 00-4.93 2.66v-2.39H146v16.6zm59 0a3.29 3.29 0 003.37-3.43v-6.42c0-4.69-3-7-6.75-7a5.76 5.76 0 00-4.89 2.45v-2.2h-3.43v16.45h3.37V55c0-3 1.61-4.57 4.15-4.57s4.12 1.57 4.12 4.57v9.34zm-44.15-7.1h10.45a9.67 9.67 0 00.11-1.68 7.66 7.66 0 00-8-8.09c-5.13 0-8.2 3.59-8.2 8.48 0 5.08 3.49 8.51 8.2 8.51a7.53 7.53 0 007.56-5.16h-3.67a4 4 0 01-3.89 2.29c-2.92 0-4.8-2.23-4.8-5.52 0-3.46 1.82-5.73 4.66-5.73 2.59 0 4.56 1.64 4.59 4.15h-7a2.53 2.53 0 000 2.75z" transform="translate(-.17 -.25)"/><path class="cls-2" d="M138.92 36.94v5.1h-.83v-2.23h-2.4v2.23h-.84v-5.1h.84v2.19h2.4v-2.19h.83z"/><path class="cls-2" d="M143.14 39.9a1 1 0 00-.33-.74 1.24 1.24 0 00-.8-.28 1 1 0 00-.74.28 1.12 1.12 0 00-.37.74zm.84.68h-3.09a1.14 1.14 0 00.36.77 1.13 1.13 0 00.79.3 1 1 0 001-.57h.9a1.81 1.81 0 01-.67.92 2.19 2.19 0 01-2.22.09 1.81 1.81 0 01-.72-.73 2.18 2.18 0 01-.26-1.1 2.25 2.25 0 01.25-1.09 1.72 1.72 0 01.71-.73 2.15 2.15 0 011-.26 2 2 0 011 .25 1.81 1.81 0 01.7.7 2.19 2.19 0 01.25 1 2.63 2.63 0 010 .41z" transform="translate(-.17 -.25)"/><path class="cls-2" d="M145.6 36.61v5.43h-.83v-5.43h.83z"/><path class="cls-2" d="M152.77 38.38a1.38 1.38 0 01.59.58 2 2 0 01.22.94v2.39h-.83V40a1.21 1.21 0 00-.27-.84 1 1 0 00-.74-.28 1 1 0 00-.75.28 1.21 1.21 0 00-.27.84v2.26h-.83V40a1.21 1.21 0 00-.27-.84 1 1 0 00-.74-.28 1 1 0 00-.75.28 1.21 1.21 0 00-.27.84v2.26H147v-4h.84v.46a1.28 1.28 0 01.52-.39 1.67 1.67 0 01.67-.14 1.89 1.89 0 01.87.2 1.4 1.4 0 01.58.6 1.35 1.35 0 01.58-.58 1.61 1.61 0 01.83-.22 1.85 1.85 0 01.86.2zm4.86 0a1.39 1.39 0 01.57.58 2 2 0 01.21.94v2.39h-.83V40a1.21 1.21 0 00-.27-.84 1 1 0 00-.74-.28 1 1 0 00-.75.28 1.21 1.21 0 00-.27.84v2.26h-.84v-5.4h.84v1.85a1.34 1.34 0 01.54-.39 1.83 1.83 0 01.71-.14 1.73 1.73 0 01.83.2zm4.27 3.09a1.2 1.2 0 00.46-.46 1.46 1.46 0 00.18-.75 1.53 1.53 0 00-.17-.74 1.11 1.11 0 00-.45-.46 1.21 1.21 0 00-.6-.15 1.24 1.24 0 00-.6.15 1.07 1.07 0 00-.43.46 1.53 1.53 0 00-.16.74 1.43 1.43 0 00.33 1 1.09 1.09 0 00.84.36 1.25 1.25 0 00.6-.16zm-1.64.62a1.87 1.87 0 01-.72-.73 2.19 2.19 0 01-.27-1.1 2.08 2.08 0 01.28-1.09 1.79 1.79 0 01.74-.73 2.23 2.23 0 012.09 0 1.79 1.79 0 01.74.73 2.08 2.08 0 01.28 1.09 2.15 2.15 0 01-.28 1.09 1.93 1.93 0 01-.76.74 2.13 2.13 0 01-1.06.26 2 2 0 01-1-.26z" transform="translate(-.17 -.25)"/><path class="cls-2" d="M164.96 36.61v5.43h-.83v-5.43h.83z"/><path class="cls-2" d="M167.35 38.93v2.23a.44.44 0 00.11.33.5.5 0 00.36.1h.52v.7h-.66a1.26 1.26 0 01-.87-.27 1.08 1.08 0 01-.3-.86v-2.23H166v-.68h.47v-1h.84v1h1v.68z" transform="translate(-.17 -.25)"/><path class="cls-2" d="M169.86 41.36h1.83v.68h-2.8v-.68l1.84-2.68h-1.84V38h2.8v.68l-1.83 2.68zm6.07-2.33v.71h-3.01v-.71h3.01zm2.14 2.28h2.37v.73h-3.36v-.65l2.36-3.72h-2.36v-.73h3.36v.66l-2.37 3.71z"/><path class="cls-2" d="M184.43 39.9a.92.92 0 00-.33-.74 1.2 1.2 0 00-.8-.28 1.07 1.07 0 00-.74.28 1.16 1.16 0 00-.36.74zm.85.68h-3.09a1.06 1.06 0 00.36.77 1.11 1.11 0 00.79.3 1 1 0 00.95-.57h.91a1.87 1.87 0 01-.67.92 2.2 2.2 0 01-2.23.09 1.94 1.94 0 01-.72-.73 2.29 2.29 0 01-.26-1.1 2.25 2.25 0 01.26-1.09 1.72 1.72 0 01.71-.73 2.1 2.1 0 011.05-.26 2 2 0 011 .25 1.81 1.81 0 01.7.7 2.19 2.19 0 01.25 1 2.63 2.63 0 010 .41zm3.85-2.2a1.38 1.38 0 01.59.58 2 2 0 01.21.94v2.39h-.83V40a1.21 1.21 0 00-.27-.84 1 1 0 00-.74-.28 1 1 0 00-.74.28 1.17 1.17 0 00-.28.84v2.26h-.83v-4h.83v.46a1.38 1.38 0 01.53-.39 1.72 1.72 0 01.68-.14 1.84 1.84 0 01.85.2zm2.95.55v2.23a.44.44 0 00.11.33.5.5 0 00.36.1h.51v.7h-.66a1.25 1.25 0 01-.86-.27 1.08 1.08 0 01-.3-.86v-2.23h-.48v-.68h.48v-1h.84v1h1v.68zm3.26-.58a1.47 1.47 0 01.72-.17V39h-.21a1 1 0 00-.74.25 1.21 1.21 0 00-.26.87v2.13H194v-4h.83v.58a1.5 1.5 0 01.49-.48zm5.26-.1v4h-.83v-.48a1.35 1.35 0 01-.52.39 1.56 1.56 0 01-.68.14 1.8 1.8 0 01-.85-.19 1.48 1.48 0 01-.6-.59 2 2 0 01-.21-.94v-2.33h.82v2.25a1.17 1.17 0 00.28.83 1 1 0 00.74.29 1 1 0 00.74-.29 1.17 1.17 0 00.28-.83v-2.25zm6.96.13a1.38 1.38 0 01.59.58 1.87 1.87 0 01.22.94v2.39h-.83V40a1.21 1.21 0 00-.27-.84 1 1 0 00-.74-.28 1 1 0 00-.75.28 1.21 1.21 0 00-.27.84v2.26h-.83V40a1.21 1.21 0 00-.27-.84 1 1 0 00-.74-.28 1 1 0 00-.75.28 1.21 1.21 0 00-.27.84v2.26h-.84v-4h.84v.46a1.28 1.28 0 01.52-.39 1.67 1.67 0 01.67-.14 1.89 1.89 0 01.87.2 1.48 1.48 0 01.59.6 1.28 1.28 0 01.57-.58 1.61 1.61 0 01.83-.22 1.85 1.85 0 01.86.2z" transform="translate(-.17 -.25)"/><path class="cls-3" d="M13.57 50.34l2.71-.52A31.67 31.67 0 0124 8.1a31.41 31.41 0 0110.56-5.31L33.83.25a34.25 34.25 0 00-23.51 42.41 34.68 34.68 0 003.25 7.68z" transform="translate(-.17 -.25)"/><path class="cls-4" d="M82 51.12c.07.2.13.41.19.61-.06-.2-.12-.41-.19-.61z" transform="translate(-.17 -.25)"/><path class="cls-4" d="M83.15 49.72v.01-.01zm-2.64-4.01zm-2.27-2.36z"/><path class="cls-4" d="M82.16 51.8a9.68 9.68 0 01.27 1.3 9.68 9.68 0 00-.27-1.3z" transform="translate(-.17 -.25)"/><path class="cls-4" d="M81.09 46.43zm3.28 6.77z"/><path class="cls-4" d="M80.24 47.82l.38.57-.38-.57zm.41.61a13.25 13.25 0 01.68 1.21 13.25 13.25 0 00-.68-1.21zM82 51.11a12.87 12.87 0 00-.6-1.44c.13.26.25.52.36.79l.24.65z" transform="translate(-.17 -.25)"/><g clip-path="url(#clip-path)"><path class="cls-4" d="M82.53 54.54a10.63 10.63 0 01-.29 2.3c-.07.3-.15.62-.24.94a12.42 12.42 0 00.53-3.24 11.32 11.32 0 00-.1-1.43 8.46 8.46 0 01.08.88v.55z" transform="translate(-.17 -.25)"/><path class="cls-4" d="M84.88 56.18a14.26 14.26 0 00-.34-2.74c-.06-.28-.13-.57-.21-.85a17.22 17.22 0 00-1-2.62c-.13-.27-.27-.53-.41-.79a20 20 0 00-1.65-2.5c-.18-.25-.38-.49-.58-.73a24.93 24.93 0 00-2.27-2.35l-.73-.6a34.4 34.4 0 00-5.08-3.55 62.49 62.49 0 00-14.39-6.28l.05.18q.18.63.33 1.26a55.81 55.81 0 0112.17 5.31c4.2 2.43 7.45 5.06 9.45 7.91l.38.57a13.25 13.25 0 01.68 1.21 12.87 12.87 0 01.6 1.44c.07.2.13.41.19.61v.07a9.68 9.68 0 01.27 1.3 11.32 11.32 0 01.1 1.43 12.42 12.42 0 01-.44 3.32c-1.72 6.08-7.43 14.83-14.13 17C59.16 77.74 47 71 37.33 71s-14.92 4-23.33.15c-8-3.64-10.35-9.23-7.94-14.09C8.9 51.34 19.62 52.29 27 48c6.74-3.9 8.42-11.62 15.27-14-.08-.49-.17-1-.27-1.48-9 2.48-8.2 9.59-16.1 14.16-8.18 4.74-22.13 2.85-24.9 9.88s.88 14.76 10.59 18.34c8.87 3.27 15.68.1 26.41.1s21.16 7.17 30.94 3.67c8.9-3.18 15.93-15.86 16-22.08v-.38z" transform="translate(-.17 -.25)"/></g><path class="cls-4" d="M57.63 34.3l-.21-.75-.18-.68c-1-.26-2-.47-3-.65.13.47.25.94.37 1.41 1 .18 2 .41 3.06.67zm20.78 9.3a24.93 24.93 0 012.27 2.4 24.93 24.93 0 00-2.27-2.35zM44.19 33.51c.58-.1 1.17-.18 1.75-.25-.1-.46-.2-.92-.32-1.37a24.27 24.27 0 00-2.62.41h-.16c.1.47.2.94.28 1.42.35-.1.72-.18 1.1-.25zm40.69 22.67a14.26 14.26 0 00-.34-2.74 14.26 14.26 0 01.34 2.74zm-2.74-4.45zm-.14-.62zM49.73 33.12c-.11-.46-.23-.92-.35-1.38-1 0-1.91 0-2.87.07.11.45.22.91.32 1.37 1-.07 1.94-.08 2.9-.06zM83.32 50a17.22 17.22 0 011 2.62 17.22 17.22 0 00-1-2.62zm-3.1-2.21zm.4.6zm-27-14.92c-.12-.45-.24-.91-.37-1.36-1-.14-2-.24-2.94-.29.12.46.24.92.35 1.38 1 .06 2 .17 3 .31zm27.64 13.21a20 20 0 011.65 2.5 20 20 0 00-1.65-2.5z" transform="translate(-.17 -.25)"/><path class="cls-4" d="M81.17 49.4l-.01-.01.01.01z"/><path class="cls-4" d="M82 57.81zm2.88-1.63zm-.55-3.59z" transform="translate(-.17 -.25)"/><path class="cls-4" d="M82.26 52.86v-.01.01z"/><path class="cls-4" d="M82.91 49.18c.14.26.28.52.41.79-.13-.27-.27-.53-.41-.79zm-1.56.49zm-.09-2.99c-.18-.25-.38-.49-.58-.73.2.24.4.48.58.73zm-2.85-3.09l-.72-.59.72.63z" transform="translate(-.17 -.25)"/><path class="cls-3" d="M63 45.15a22.81 22.81 0 003-7.81c-.82-.38-1.66-.74-2.51-1.09a20.07 20.07 0 01-2.72 7.53 21 21 0 01-2.06 2.8 9 9 0 002.17 1.53 23.29 23.29 0 002.15-3zm-25.51 7.57a19.73 19.73 0 01-4.57-2 20.08 20.08 0 01-4.52-3.62 16.22 16.22 0 01-1.4.9c-.28.16-.57.32-.86.46a22.85 22.85 0 0011.41 7 8.47 8.47 0 010-2.75zm-10.26-6.99a20.35 20.35 0 013.51-28.59l-1.63-2.08A23.07 23.07 0 0021 39a23 23 0 004 8.21c.31-.16.61-.32.9-.49.5-.28 1-.58 1.38-.88l-.05-.07zm30.22 5.6a22.81 22.81 0 002.75-2.54 10.13 10.13 0 01-2.2-1.56 19.17 19.17 0 01-2.21 2c-.48.38-1 .73-1.48 1.06a11.83 11.83 0 002.14 1.75c.33-.23.65-.47 1-.72zm-19.01 4.36c.67.14 1.35.26 2 .35a24.42 24.42 0 002.83.17h.25a10.79 10.79 0 01-1.19-2.67c-.52 0-1-.07-1.57-.13a20 20 0 01-2.41-.41 7.92 7.92 0 00.09 2.74zm10.61-.21c.32-.08.63-.18 1-.27l-.4-.4A12.58 12.58 0 0148.14 53a20.28 20.28 0 01-4.84.58 10 10 0 001.28 2.61 22.59 22.59 0 004.47-.69zm1.95-.59a22.77 22.77 0 004.73-2.31 13.19 13.19 0 01-2-1.7.52.52 0 00-.1-.11 20.48 20.48 0 01-4.53 2 11.28 11.28 0 001.19 1.47q.35.36.72.69z" transform="translate(-.17 -.25)"/><path class="cls-6" d="M92.56 35a44.82 44.82 0 01-3.7-2.67C82.09 26.71 79.18 20.2 77 14.55 73.44 5.47 62 2.4 53.1 4.13a23.13 23.13 0 00-5.34 1.67l.82.14.78.18A23.16 23.16 0 0153.27 5 25.59 25.59 0 0158 4.55c7.49 0 15.37 3.22 18.13 10.32C78.39 20.63 81.36 27.26 88.3 33c1.16 1 2.48 1.85 3.76 2.71 4.57 3.09 8.88 6 7.56 12-1 4.34-7.7 6.65-14.74 8.46v.91c7.37-1.89 14.55-4.31 15.61-9.19 1.45-6.61-3.32-9.83-7.92-12.94zM70.77 60.19A13.4 13.4 0 0065.35 65c-1.4 2-2.62 3.66-6.61 4.12-5.07.59-12.23-2.47-16.66-7.11-2.88-3-4.2-6.29-3.72-9.22a21.16 21.16 0 012.39-6.29c1.32-2.61 2.68-5.3 2.68-8.92a38.4 38.4 0 00-1.82-10.06 35.33 35.33 0 01-1.69-8.93c-.07-5.9 3.56-9.75 8-11.9-.52-.09-1-.17-1.56-.23A13.69 13.69 0 0039 18.64a36.73 36.73 0 001.73 9.16 37.45 37.45 0 011.79 9.82c0 3.41-1.26 5.89-2.59 8.52a22.47 22.47 0 00-2.47 6.55c-.52 3.21.88 6.75 3.95 10a26 26 0 008.31 5.69 19.79 19.79 0 007.69 1.77 12.7 12.7 0 001.4-.08c4.38-.51 5.76-2.44 7.23-4.48A12.27 12.27 0 0171.15 61c2.29-1.11 6-2 9.89-3l1-.23c.09-.33.17-.65.24-1l-1.41.34a58.53 58.53 0 00-10.06 3z" transform="translate(-.17 -.25)"/><path class="cls-6" d="M70.33 56.54a11.26 11.26 0 00-4.6 4.12c-1.24 1.71-2.21 3.07-5.55 3.45-4.26.5-10.29-2.08-14-6-2.42-2.53-3.53-5.27-3.13-7.73a17.77 17.77 0 012-5.3c1.12-2.21 2.28-4.49 2.28-7.57A32.2 32.2 0 0045.77 29a29.84 29.84 0 01-1.42-7.53c-.08-6.84 5.75-10.4 11.23-11.47.33-.07.67-.12 1-.17-.42-.24-.84-.46-1.27-.68-8.81 1.74-11.91 7.5-11.86 12.32a31.52 31.52 0 001.46 7.75 31.38 31.38 0 011.51 8.29c0 2.87-1.06 5-2.18 7.17a18.92 18.92 0 00-2.09 5.56c-.45 2.73.75 5.75 3.36 8.48 3.63 3.8 9.12 6.33 13.54 6.33a9.65 9.65 0 001.23-.05c3.73-.43 4.91-2.08 6.16-3.82a10.45 10.45 0 014.27-3.84 48.78 48.78 0 018.34-2.48c1.14-.28 2.31-.56 3.46-.86a8.65 8.65 0 00-.08-.89c-1.2.31-2.4.6-3.59.89a48.74 48.74 0 00-8.51 2.55zm25.21-10.31c1.23-5.64-2.82-8.37-6.73-11-1.06-.72-2.17-1.47-3.12-2.25-5.71-4.72-8.17-10.2-10-15C72.85 10.74 64.11 8 56.78 8.93c.43.24.86.49 1.29.76.5 0 1-.06 1.51-.06 6.31 0 12.94 2.71 15.26 8.68 1.9 4.88 4.42 10.49 10.29 15.34 1 .81 2.1 1.56 3.19 2.3 3.84 2.59 7.46 5 6.36 10.09-.7 3.21-5.22 5.1-10.35 6.55.08.28.15.57.21.85 5.4-1.52 10.2-3.56 11-7.21z" transform="translate(-.17 -.25)"/><path class="cls-6" d="M90.6 44.55c1-4.66-2.31-6.91-5.53-9.08-.87-.59-1.77-1.2-2.55-1.83-4.65-3.84-6.65-8.31-8.16-12.2C72.6 16.91 68 14.52 63.31 14q.48.49.93 1c4.05.72 7.79 2.9 9.3 6.77s3.61 8.58 8.46 12.55c.81.66 1.73 1.28 2.61 1.88 3.12 2.1 6.05 4.09 5.16 8.16-.49 2.25-3.34 3.7-6.82 4.82l.41.79c3.67-1.2 6.7-2.8 7.28-5.42zm-20.71 8.33a9.18 9.18 0 00-3.79 3.4 5.4 5.4 0 01-4.48 2.78c-3.46.41-8.35-1.69-11.39-4.86-1.95-2.05-2.85-4.27-2.53-6.25a14.66 14.66 0 011.63-4.31 13.09 13.09 0 001.87-6.22 26.45 26.45 0 00-1.26-7 24.37 24.37 0 01-1.16-6.13c-.06-5.54 4.66-8.43 9.11-9.29a17.51 17.51 0 015-.21c-.31-.33-.62-.64-.94-1a17.93 17.93 0 00-4.23.3c-7.31 1.41-9.87 6.17-9.83 10.15a25.76 25.76 0 001.2 6.36 26.07 26.07 0 011.23 6.75 12.25 12.25 0 01-1.77 5.82 15.25 15.25 0 00-1.72 4.56c-.37 2.26.61 4.75 2.77 7 3 3.11 7.49 5.19 11.12 5.19a8.14 8.14 0 001-.06 6.24 6.24 0 005.09-3.15 8.36 8.36 0 013.46-3.11 39.92 39.92 0 016.8-2c1.53-.37 3.11-.75 4.64-1.19-.12-.27-.24-.54-.37-.81-1.47.42-3 .79-4.48 1.15a40.07 40.07 0 00-7 2.08z" transform="translate(-.17 -.25)"/><path class="cls-6" d="M69.44 49.23a7.24 7.24 0 00-3 2.66A4.11 4.11 0 0163.06 54c-2.66.3-6.42-1.31-8.75-3.75-1.5-1.57-2.19-3.26-1.94-4.77a11.06 11.06 0 011.26-3.31 10.23 10.23 0 001.46-4.87 20.4 20.4 0 00-1-5.45 18.72 18.72 0 01-.89-4.73c-.05-4.23 3.58-6.44 7-7.1a13.36 13.36 0 016.8.48c-.2-.37-.41-.74-.63-1.1a14.25 14.25 0 00-6.37-.23c-5.73 1.11-7.74 4.85-7.71 8a20.46 20.46 0 00.93 5 19.86 19.86 0 011 5.21 9.44 9.44 0 01-1.37 4.47 12.07 12.07 0 00-1.34 3.57c-.29 1.78.48 3.74 2.17 5.52A13.09 13.09 0 0062.39 55a6.53 6.53 0 00.78 0 4.91 4.91 0 004-2.48A6.41 6.41 0 0169.83 50a30.5 30.5 0 015.25-1.56c1.57-.38 3.2-.78 4.71-1.26l-.61-.74c-1.41.44-2.91.8-4.3 1.14a31.92 31.92 0 00-5.44 1.63zm16.21-6.36c.81-3.68-1.92-5.52-4.33-7.15-.67-.45-1.37-.92-2-1.41a21.28 21.28 0 01-6.31-9.43 9 9 0 00-5.46-5.09c.23.41.44.82.64 1.24a7.84 7.84 0 014 4.17 22.11 22.11 0 006.6 9.8c.63.52 1.35 1 2 1.47 2.38 1.61 4.64 3.13 4 6.22-.31 1.44-2 2.47-4.11 3.27.2.24.4.49.58.73 2.26-.89 4-2.06 4.39-3.81z" transform="translate(-.17 -.25)"/><path class="cls-6" d="M80.71 41.19c.59-2.7-1.39-4-3.13-5.21-.5-.34-1-.66-1.39-1a15.09 15.09 0 01-4.45-6.65A5.88 5.88 0 0070.1 26c.17.61.31 1.23.43 1.86a4.73 4.73 0 01.39.78 16.11 16.11 0 004.71 7c.45.37 1 .72 1.45 1.05 1.73 1.17 3.23 2.18 2.77 4.3-.18.81-1 1.44-2.16 2 .24.21.49.42.72.64a3.85 3.85 0 002.3-2.41zm-18.37-17c-3.48.67-5.62 2.89-5.59 5.8a14.71 14.71 0 00.67 3.56 14.12 14.12 0 01.67 3.67 6.61 6.61 0 01-1 3.12 8.53 8.53 0 00-1 2.58 4.85 4.85 0 001.58 4A9.44 9.44 0 0064 49.87h.57A3.64 3.64 0 0067.55 48a4.44 4.44 0 011.84-1.65 20.61 20.61 0 013.71-1.1c1.28-.32 2.63-.64 3.83-1.06-.25-.23-.52-.45-.79-.67-1 .33-2.2.61-3.25.87A22.22 22.22 0 0069 45.57a5.23 5.23 0 00-2.16 1.94A2.82 2.82 0 0164.5 49a8.29 8.29 0 01-6.11-2.63A4 4 0 0157 43.06a8 8 0 01.88-2.32 7.37 7.37 0 001-3.52 14.66 14.66 0 00-.7-3.91 13.34 13.34 0 01-.54-3.31c0-2.93 2.49-4.47 4.86-4.93a9.4 9.4 0 011.77-.16 8.16 8.16 0 015 1.6c-.12-.44-.24-.87-.38-1.3a9.86 9.86 0 00-6.6-1z" transform="translate(-.17 -.25)"/><path class="cls-3" d="M21.24 17.79a26.88 26.88 0 0148.52 20l.82.44a27.77 27.77 0 00.08-9.75A27.77 27.77 0 0048.58 5.94a27.77 27.77 0 00-10.12-.09A27.74 27.74 0 0016 27.91l.86.17a26.78 26.78 0 014.36-10.29z" transform="translate(-.17 -.25)"/></svg>